<svg width="15" height="14" viewBox="0 0 15 14" fill="none" xmlns="http://www.w3.org/2000/svg">
<g clip-path="url(#clip0_491_6032)">
<path d="M11.9333 1.00671H2.96416C2.12759 1.00671 1.44873 1.67077 1.44873 2.4891C1.44873 2.84461 1.57902 3.1867 1.81216 3.455L5.3573 7.49972C5.48759 7.654 5.56302 7.84852 5.56302 8.04304V11.8262C5.56302 12.2353 5.77559 12.611 6.13216 12.8256C6.32416 12.9396 6.54359 13 6.76302 13C6.94816 13 7.12644 12.9598 7.29787 12.8726L8.6693 12.2018C9.08073 12.0006 9.33444 11.5981 9.33444 11.1487V8.03633C9.33444 7.8351 9.40987 7.64058 9.54016 7.49301L13.0853 3.4483C13.3184 3.17999 13.4487 2.8379 13.4487 2.48239C13.4487 1.66406 12.7699 1 11.9333 1V1.00671ZM12.3036 2.79765L8.75844 6.84237C8.46359 7.17775 8.30587 7.60034 8.30587 8.04304V11.1554C8.30587 11.2225 8.27159 11.2761 8.20987 11.303L6.83844 11.9737C6.76302 12.014 6.7013 11.9871 6.67387 11.967C6.64644 11.9469 6.59159 11.9067 6.59159 11.8262V8.04304C6.59159 7.60034 6.43387 7.17775 6.13902 6.84237L2.59387 2.79765C2.51844 2.71045 2.4773 2.60313 2.4773 2.4891C2.4773 2.2275 2.69673 2.01286 2.96416 2.01286H11.9333C12.2007 2.01286 12.4202 2.2275 12.4202 2.4891C12.4202 2.60313 12.379 2.71045 12.3036 2.79765Z" fill="#293731"/>
</g>
<defs>
<clipPath id="clip0_491_6032">
<rect width="14" height="14" fill="white" transform="translate(0.44873)"/>
</clipPath>
</defs>
</svg>
