<svg width="36" height="36" viewBox="0 0 36 36" fill="none" xmlns="http://www.w3.org/2000/svg">
<rect x="0.5" y="0.5" width="35" height="35" rx="7.5" fill="#F4FEFF"/>
<rect x="0.5" y="0.5" width="35" height="35" rx="7.5" stroke="#0FA4B5"/>
<g clip-path="url(#clip0_269_12662)">
<path d="M11.75 8.83335H16.3458C16.6242 8.83335 16.8983 8.85835 17.1667 8.90669V13.4167C17.1667 14.565 18.1017 15.5 19.25 15.5H23.7592C23.7867 15.6484 23.8067 15.7992 23.8183 15.9509C23.8367 16.18 24.0467 16.35 24.2675 16.3325C24.4967 16.3142 24.6675 16.1125 24.6492 15.8834C24.545 14.6034 23.9883 13.3992 23.08 12.4917L20.1758 9.58752C19.1525 8.56419 17.7925 8.00085 16.3458 8.00085H11.75C9.6825 8.00002 8 9.68252 8 11.75V24.25C8 26.3175 9.6825 28 11.75 28H15.0833C15.3133 28 15.5 27.8134 15.5 27.5834C15.5 27.3534 15.3133 27.1667 15.0833 27.1667H11.75C10.1417 27.1667 8.83333 25.8584 8.83333 24.25V11.75C8.83333 10.1417 10.1417 8.83335 11.75 8.83335ZM22.4908 13.08C22.945 13.5342 23.295 14.0759 23.5242 14.6667H19.25C18.5608 14.6667 18 14.1059 18 13.4167V9.14002C18.5883 9.36752 19.1275 9.71669 19.5867 10.1759L22.4908 13.08ZM27.3892 17.7767C26.6033 16.99 25.2292 16.99 24.4433 17.7767L18.0208 24.1992C17.47 24.75 17.1667 25.4825 17.1667 26.2617V27.5834C17.1667 27.8134 17.3533 28 17.5833 28H18.905C19.6842 28 20.4167 27.6967 20.9675 27.1459L27.39 20.7234C27.7833 20.33 28 19.8067 28 19.25C28 18.6934 27.7825 18.17 27.3892 17.7767ZM26.8 20.1334L20.3775 26.5559C19.9842 26.9492 19.4608 27.1659 18.9042 27.1659H17.9992V26.2609C17.9992 25.7042 18.2158 25.1817 18.6092 24.7875L25.0317 18.365C25.5033 17.8934 26.3275 17.8934 26.7992 18.365C27.035 18.6009 27.165 18.915 27.165 19.2492C27.165 19.5834 27.0358 19.8967 26.8 20.1334Z" fill="#0FA4B5"/>
</g>
<defs>
<clipPath id="clip0_269_12662">
<rect width="20" height="20" fill="white" transform="translate(8 8)"/>
</clipPath>
</defs>
</svg>
