<svg width="36" height="36" viewBox="0 0 36 36" fill="none" xmlns="http://www.w3.org/2000/svg">
<rect x="0.5" y="0.5" width="35" height="35" rx="7.5" fill="white"/>
<rect x="0.5" y="0.5" width="35" height="35" rx="7.5" stroke="#FF5E4D"/>
<g clip-path="url(#clip0_269_12659)">
<path d="M27.8208 18.2576L26.43 11.041C26.09 9.27931 24.5408 8.00098 22.7475 8.00098H13.2525C11.4583 8.00014 9.91 9.27931 9.57 11.0401L8.17833 18.2593C8.06 18.891 8 19.5376 8 20.1801V24.2501C8 26.3176 9.6825 28.0001 11.75 28.0001H24.25C26.3175 28.0001 28 26.3176 28 24.2501V20.1801C28 19.5343 27.94 18.8885 27.8208 18.2576ZM25.6117 11.1985L27.0025 18.4135C27.0283 18.5518 27.0417 18.6935 27.0617 18.8335H25.4408L24.6667 13.8335V9.56348C25.14 9.97931 25.485 10.5435 25.6117 11.1976V11.1985ZM12.1667 13.8335H23.8383L24.5975 18.8335H11.4017L12.1667 13.8335ZM22.7475 8.83348C23.13 8.83348 23.495 8.91431 23.8333 9.05098L23.8375 13.0001H12.1667V9.05014C12.505 8.91348 12.87 8.83348 13.2525 8.83348H22.7475ZM10.3883 11.1985C10.5142 10.5435 10.86 9.97848 11.3342 9.56264L11.3383 13.7701L10.5592 18.8335H8.93833C8.95833 18.6943 8.97083 18.5535 8.99667 18.4151L10.3883 11.1985ZM27.1667 24.2501C27.1667 25.8585 25.8583 27.1668 24.25 27.1668H11.75C10.1417 27.1668 8.83333 25.8585 8.83333 24.2501V20.1801C8.83333 20.0093 8.84833 19.8385 8.8575 19.6668H27.1425C27.1517 19.8376 27.1667 20.0085 27.1667 20.1801V24.2501ZM20.5 23.4168C20.5 23.6468 20.3133 23.8335 20.0833 23.8335H15.9167C15.6867 23.8335 15.5 23.6468 15.5 23.4168C15.5 23.1868 15.6867 23.0001 15.9167 23.0001H20.0833C20.3133 23.0001 20.5 23.1868 20.5 23.4168Z" fill="#FF5E4D"/>
</g>
<defs>
<clipPath id="clip0_269_12659">
<rect width="20" height="20" fill="white" transform="translate(8 8)"/>
</clipPath>
</defs>
</svg>
