<svg width="20" height="20" viewBox="0 0 20 20" fill="none" xmlns="http://www.w3.org/2000/svg">
<path d="M18.4456 7.55916L2.80228 0.200829C2.07478 -0.154171 1.24895 -0.0383372 0.647281 0.504163C0.0447811 1.0475 -0.156886 1.8575 0.146448 2.67166L4.05311 10.0008L0.193948 17.3825C-0.0835522 18.1442 0.118948 18.9542 0.723114 19.4958C1.09395 19.8292 1.55061 20 2.01478 20C2.30561 20 2.59811 19.9333 2.87645 19.7967L18.4481 12.445C19.4056 11.9958 20.0006 11.0583 19.9998 9.99916C19.9998 8.94083 19.4023 8.00583 18.4456 7.55916ZM0.905614 2.3325C0.714781 1.8125 0.934781 1.3675 1.20478 1.12416C1.38311 0.964163 1.64561 0.833329 1.94811 0.833329C2.10395 0.833329 2.26978 0.868329 2.43978 0.951663C2.44145 0.951663 2.44395 0.953329 2.44561 0.954163L18.0914 8.31416C18.6331 8.5675 18.9989 9.02583 19.1214 9.5825H4.77395L0.905614 2.3325ZM18.0923 11.6917L2.51478 19.0467C2.01728 19.2892 1.55145 19.1183 1.28061 18.8758C1.00978 18.6333 0.788114 18.1883 0.955614 17.7175L4.77645 10.415H19.1231C19.0031 10.9742 18.6364 11.4358 18.0923 11.6908V11.6917Z" fill="#E1E4E5"/>
</svg>
