<svg width="23" height="24" viewBox="0 0 23 24" fill="none" xmlns="http://www.w3.org/2000/svg">
<path d="M21.859 13.662L19.961 6.826C18.844 2.807 15.151 0 10.979 0C6.57702 0 2.83502 3.002 1.88502 7.28L0.119023 13.915C-0.211977 15.402 0.145023 16.938 1.09902 18.13C2.05402 19.318 3.47502 20 4.99902 20H6.12102C6.59102 22.305 8.60102 24 10.999 24C13.397 24 15.407 22.305 15.877 20H17.041C18.617 20 20.068 19.28 21.022 18.025C21.976 16.771 22.281 15.181 21.859 13.662ZM11 23C9.15102 23 7.58602 21.742 7.13902 20H14.862C14.414 21.742 12.85 23 11.001 23H11ZM20.227 17.42C19.464 18.424 18.303 19 17.042 19H5.00002C3.78002 19 2.64302 18.454 1.88002 17.504C1.11602 16.552 0.831023 15.322 1.09102 14.152L2.85702 7.516C3.70902 3.68 7.04902 1 10.979 1C14.703 1 18 3.506 18.996 7.094L20.894 13.93C21.232 15.146 20.989 16.417 20.227 17.42Z" fill="#001219"/>
</svg>
