<svg width="20" height="20" viewBox="0 0 20 20" fill="none" xmlns="http://www.w3.org/2000/svg">
<path d="M18.4453 7.55919L2.79643 0.20086C2.06867 -0.15414 1.24255 -0.0383067 0.640671 0.504193C0.0379585 1.04753 -0.163779 1.85753 0.139661 2.67169L4.04771 10.0009L0.187178 17.3825C-0.0904201 18.1442 0.112151 18.9542 0.716531 19.4959C1.0875 19.8292 1.54432 20 2.00865 20C2.29959 20 2.59219 19.9334 2.87062 19.7967L18.4478 12.445C19.4056 11.9959 20.0008 11.0584 20 9.99919C20 8.94086 19.4023 8.00586 18.4453 7.55919ZM0.899096 2.33253C0.708195 1.81253 0.928273 1.36753 1.19837 1.12419C1.37676 0.964193 1.63936 0.83336 1.94196 0.83336C2.09785 0.83336 2.26374 0.86836 2.4338 0.951693C2.43547 0.951693 2.43797 0.95336 2.43964 0.954193L18.091 8.31419C18.6328 8.56753 18.9988 9.02586 19.1214 9.58253H4.76879L0.899096 2.33253ZM18.0918 11.6917L2.50883 19.0467C2.01115 19.2892 1.54516 19.1184 1.27423 18.8759C1.0033 18.6334 0.781554 18.1884 0.949113 17.7175L4.77129 10.415H19.123C19.003 10.9742 18.6362 11.4359 18.0918 11.6909V11.6917Z" fill="#0FA4B5"/>
</svg>
